<?xml version="1.0" encoding="utf-8"?>
<?xml-stylesheet type="text/xsl" href="rss1.xsl"?>
<rss version="2.0" xmlns:atom="http://www.w3.org/2005/Atom" xmlns:content="http://purl.org/rss/1.0/modules/content/" xmlns:dc="http://purl.org/dc/elements/1.1/" xmlns:media="http://search.yahoo.com/mrss/">
<channel>
 <title>Getty</title>
 <link>http://www.gettyimg.com/</link>
 <atom:link href="http://www.gettyimg.com/" rel="self" type="application/rss+xml" />

 
                <item>
                <title><![CDATA[【Unreleased/Unofficial (lossless)】FLAC - Alexz Johnson - Weight (2008) [24bit/96kHz]]]></title>
                <link><![CDATA[https://sharemania.us/threads/alexz-johnson-weight-2008-24bit-96khz.239207/]]></link>
                <description><![CDATA[<article>
<blockquote class="messageText SelectQuoteContainer ugc baseHtml">
<div style="text-align: center"><span style="text-decoration: underline"><i>Mastered</i></span><br>
<img src="https://i.imgur.com/Acgy4mP.jpg" class="bbCodeImage LbImage" alt="[​IMG]" data-url="https://i.imgur.com/Acgy4mP.jpg" style=""><br>
​</div><ol>
<li>Running With The Devil</li>
<li>Swallowed</li>
<li>Mail Man</li>
<li>Chicago</li>
<li>Golden</li>
<li>Lost And Found</li>
<li>Saving The Train</li>
<li>Weight</li>
<li>Easy</li>
<li>Shout</li>
</ol>
<div class="bbCodeBlock bbCodeVfcHH HiddenContent">
<div class="attribution type">Hidden Content:</div>
<blockquote>You must either reply or click 'Like' to see the hidden information contained here.</blockquote>
</div>
<div class="messageTextEndMarker">&nbsp;</div>
</blockquote>
</article>]]></description>
                <author><![CDATA[TrashBanjo]]></author>
                </item>

                
                <item>
                <title><![CDATA[【HD Live Performances】FEED - Kylie Minogue @ 2024 Brit Awards FEED MPA2.0 4.2.2-10b-TSS]]></title>
                <link><![CDATA[https://sharemania.us/threads/kylie-minogue-2024-brit-awards-feed-mpa2-0-4-2-2-10b-tss.239206/]]></link>
                <description><![CDATA[<article>
<blockquote class="messageText SelectQuoteContainer ugc baseHtml">
<div style="text-align: center"><img src="https://i.imgur.com/hlDsA7y.png" class="bbCodeImage LbImage" alt="[​IMG]" data-url="https://i.imgur.com/hlDsA7y.png" style=""> <br>
<br>
​</div>
<div class="ToggleTriggerAnchor bbCodeSpoilerContainer">
<button type="button" class="button bbCodeSpoilerButton ToggleTrigger Tooltip JsOnly" data-target="> .SpoilerTarget"><span>Spoiler: <span class="SpoilerTitle">Media Info</span></span></button>
<div class="SpoilerTarget bbCodeSpoilerText"><div style="text-align: left">General<br>
ID : 0 (0x0)<br>
Complete name : Z:\Satellite Recordings\Award Shows\2024 Brit Awards\Kylie Minogue @ 2024 Brit Awards FEED MPA2.0 4.2.2-10b.ts<br>
Format : MPEG-TS<br>
File size : 3.70 GiB<br>
Duration : 15 min 33 s<br>
Overall bit rate mode : Variable<br>
Overall bit rate : 34.0 Mb/s<br>
<br>
Video<br>
ID : 512 (0x200)<br>
Menu ID : 1 (0x1)<br>
Format : AVC<br>
Format/Info : Advanced Video Codec<br>
Format profile : High 4:2:2@L4<br>
Format settings : CABAC / 3 Ref Frames<br>
Format settings, CABAC : Yes<br>
Format settings, Reference frames : 3 frames<br>
Codec ID : 27<br>
Duration : 15 min 33 s<br>
Bit rate mode : Constant<br>
Bit rate : 30.8 Mb/s<br>
Nominal bit rate : 32.7 Mb/s<br>
Width : 1 920 pixels<br>
Height : 1 080 pixels<br>
Display aspect ratio : 16:9<br>
Frame rate : 25.000 FPS<br>
Color space : YUV<br>
Chroma subsampling : 4:2:2<br>
Bit depth : 10 bits<br>
Scan type : MBAFF<br>
Scan type, store method : Interleaved fields<br>
Scan order : Top Field First<br>
Bits/(Pixel*Frame) : 0.594<br>
Stream size : 3.34 GiB (90%)<br>
Color range : Limited<br>
Color primaries : BT.709<br>
Transfer characteristics : BT.709<br>
Matrix coefficients : BT.709<br>
<br>
Audio #1<br>
ID : 4112 (0x1010)<br>
Menu ID : 1 (0x1)<br>
Format : MPEG Audio<br>
Format version : Version 1<br>
Format profile : Layer 2<br>
Codec ID : 3<br>
Duration : 15 min 33 s<br>
Bit rate mode : Constant<br>
Bit rate : 384 kb/s<br>
Channel(s) : 2 channels<br>
Sampling rate : 48.0 kHz<br>
Frame rate : 41.667 FPS (1152 SPF)<br>
Compression mode : Lossy<br>
Stream size : 42.7 MiB (1%)<br>
Language : German<br>
Language, more info : Clean effects<br>
<br>
Audio #2<br>
ID : 4128 (0x1020)<br>
Menu ID : 1 (0x1)<br>
Format : MPEG Audio<br>
Format version : Version 1<br>
Format profile : Layer 2<br>
Codec ID : 3<br>
Duration : 15 min 33 s<br>
Bit rate mode : Constant<br>
Bit rate : 384 kb/s<br>
Channel(s) : 2 channels<br>
Sampling rate : 48.0 kHz<br>
Frame rate : 41.667 FPS (1152 SPF)<br>
Compression mode : Lossy<br>
Stream size : 42.7 MiB (1%)<br>
Language : German<br>
Language, more info : Clean effects<br>
<br>
Audio #3<br>
ID : 4144 (0x1030)<br>
Menu ID : 1 (0x1)<br>
Format : MPEG Audio<br>
Format version : Version 1<br>
Format profile : Layer 2<br>
Codec ID : 3<br>
Duration : 15 min 33 s<br>
Bit rate mode : Constant<br>
Bit rate : 384 kb/s<br>
Channel(s) : 2 channels<br>
Sampling rate : 48.0 kHz<br>
Frame rate : 41.667 FPS (1152 SPF)<br>
Compression mode : Lossy<br>
Stream size : 42.7 MiB (1%)<br>
Language : German<br>
Language, more info : Clean effects<br>
<br>
Audio #4<br>
ID : 4160 (0x1040)<br>
Menu ID : 1 (0x1)<br>
Format : MPEG Audio<br>
Format version : Version 1<br>
Format profile : Layer 2<br>
Codec ID : 3<br>
Duration : 15 min 33 s<br>
Bit rate mode : Constant<br>
Bit rate : 384 kb/s<br>
Channel(s) : 2 channels<br>
Sampling rate : 48.0 kHz<br>
Frame rate : 41.667 FPS (1152 SPF)<br>
Compression mode : Lossy<br>
Stream size : 42.7 MiB (1%)<br>
Language : German<br>
Language, more info : Clean effects​</div></div>
</div><div style="text-align: center"><br>
<b>Download<br>
<div class="bbCodeBlock bbCodeVfcHH HiddenContent">
<div class="attribution type">Hidden Content:</div>
<blockquote>You must reply before you can see the hidden data contained here.</blockquote>
</div></b>​</div>
<div class="messageTextEndMarker">&nbsp;</div>
</blockquote>
</article>]]></description>
                <author><![CDATA[theslothsidd]]></author>
                </item>

                </channel></rss>